<svg width="50" height="50" viewBox="0 0 50 50" fill="none" xmlns="http://www.w3.org/2000/svg">
  <path d="M25 20.8333C30.3553 20.8333 34.7222 16.4664 34.7222 11.1111C34.7222 5.75582 30.3553 1.38889 25 1.38889C19.6447 1.38889 15.2778 5.75582 15.2778 11.1111C15.2778 16.4664 19.6447 20.8333 25 20.8333Z" stroke="#27AE60" stroke-width="2" stroke-linecap="round" stroke-linejoin="round"/>
  <path d="M25 20.8333V41.6666" stroke="#27AE60" stroke-width="2" stroke-linecap="round" stroke-linejoin="round"/>
  <path d="M16.6667 29.1667H33.3333" stroke="#27AE60" stroke-width="2" stroke-linecap="round" stroke-linejoin="round"/>
  <path d="M13.8889 41.6666H36.1111" stroke="#27AE60" stroke-width="2" stroke-linecap="round" stroke-linejoin="round"/>
  <path d="M29.1667 11.1111C29.1667 8.7397 27.3714 6.94444 25 6.94444C22.6286 6.94444 20.8333 8.7397 20.8333 11.1111C20.8333 13.4825 22.6286 15.2778 25 15.2778C27.3714 15.2778 29.1667 13.4825 29.1667 11.1111Z" fill="#27AE60"/>
</svg> 