<svg width="150" height="40" viewBox="0 0 150 40" fill="none" xmlns="http://www.w3.org/2000/svg">
  <path d="M15 5H5V15H15V5Z" fill="black"/>
  <path d="M35 5H25V15H35V5Z" fill="black"/>
  <path d="M25 15H15V25H25V15Z" fill="black"/>
  <path d="M15 25H5V35H15V25Z" fill="black"/>
  <path d="M35 25H25V35H35V25Z" fill="black"/>
  <path d="M50 10H45V30H50V10Z" fill="black"/>
  <path d="M65 10H52V15H65V10Z" fill="black"/>
  <path d="M65 17.5H52V22.5H65V17.5Z" fill="black"/>
  <path d="M65 25H52V30H65V25Z" fill="black"/>
  <path d="M82 10H70V15H82V10Z" fill="black"/>
  <path d="M75 15H70V30H75V15Z" fill="black"/>
  <path d="M98 10H85V15H98V10Z" fill="black"/>
  <path d="M98 25H85V30H98V25Z" fill="black"/>
  <path d="M90 15H85V25H90V15Z" fill="black"/>
  <path d="M113 10H100V15H113V10Z" fill="black"/>
  <path d="M113 25H100V30H113V25Z" fill="black"/>
  <path d="M105 15H100V25H105V15Z" fill="black"/>
  <path d="M128 10H115V15H128V10Z" fill="black"/>
  <path d="M120 15H115V30H120V15Z" fill="black"/>
  <path d="M145 10H132V15H145V10Z" fill="black"/>
  <path d="M145 17.5H132V22.5H145V17.5Z" fill="black"/>
  <path d="M145 25H132V30H145V25Z" fill="black"/>
</svg> 