<svg width="50" height="50" viewBox="0 0 50 50" fill="none" xmlns="http://www.w3.org/2000/svg">
  <path d="M33.3333 4.16675H16.6667C14.3655 4.16675 12.5 6.03223 12.5 8.33341V41.6667C12.5 43.9679 14.3655 45.8334 16.6667 45.8334H33.3333C35.6345 45.8334 37.5 43.9679 37.5 41.6667V8.33341C37.5 6.03223 35.6345 4.16675 33.3333 4.16675Z" stroke="#27AE60" stroke-width="2" stroke-linecap="round" stroke-linejoin="round"/>
  <path d="M25 37.5C25.6904 37.5 26.25 36.9404 26.25 36.25C26.25 35.5596 25.6904 35 25 35C24.3096 35 23.75 35.5596 23.75 36.25C23.75 36.9404 24.3096 37.5 25 37.5Z" fill="#27AE60"/>
  <path d="M12.5 12.5H37.5" stroke="#27AE60" stroke-width="2" stroke-linecap="round"/>
  <path d="M12.5 33.3334H37.5" stroke="#27AE60" stroke-width="2" stroke-linecap="round"/>
  <path d="M20.8333 20.8334H29.1667" stroke="#27AE60" stroke-width="2" stroke-linecap="round"/>
  <path d="M20.8333 25.0001H29.1667" stroke="#27AE60" stroke-width="2" stroke-linecap="round"/>
</svg> 